<?xml version="1.0" encoding="UTF-8" standalone="no"?>
<!-- Created with Inkscape (http://www.inkscape.org/) -->

<svg
   width="120"
   height="120"
   viewBox="0 0 120 120"
   version="1.1"
   id="svg1"
   inkscape:version="1.4.1 (1:1.4.1+202503302257+93de688d07)"
   sodipodi:docname="icon.svg"
   xmlns:inkscape="http://www.inkscape.org/namespaces/inkscape"
   xmlns:sodipodi="http://sodipodi.sourceforge.net/DTD/sodipodi-0.dtd"
   xmlns:xlink="http://www.w3.org/1999/xlink"
   xmlns="http://www.w3.org/2000/svg"
   xmlns:svg="http://www.w3.org/2000/svg">
  <sodipodi:namedview
     id="namedview1"
     pagecolor="#ffffff"
     bordercolor="#000000"
     borderopacity="0.25"
     inkscape:showpageshadow="2"
     inkscape:pageopacity="0.0"
     inkscape:pagecheckerboard="0"
     inkscape:deskcolor="#d1d1d1"
     inkscape:document-units="px"
     inkscape:zoom="1.8897429"
     inkscape:cx="203.46683"
     inkscape:cy="69.850773"
     inkscape:window-width="1920"
     inkscape:window-height="1048"
     inkscape:window-x="0"
     inkscape:window-y="0"
     inkscape:window-maximized="1"
     inkscape:current-layer="g20" />
  <defs
     id="defs1">
    <linearGradient
       id="linearGradient19"
       inkscape:collect="always">
      <stop
         style="stop-color:#fd933a;stop-opacity:1;"
         offset="0"
         id="stop19" />
      <stop
         style="stop-color:#ffd556;stop-opacity:1"
         offset="1"
         id="stop20" />
    </linearGradient>
    <linearGradient
       inkscape:collect="always"
       xlink:href="#linearGradient19"
       id="linearGradient20"
       x1="70.909119"
       y1="52.652664"
       x2="52.123493"
       y2="46.831768"
       gradientUnits="userSpaceOnUse" />
    <linearGradient
       inkscape:collect="always"
       xlink:href="#linearGradient19"
       id="linearGradient23"
       x1="62.971531"
       y1="76.994598"
       x2="49.742218"
       y2="61.913185"
       gradientUnits="userSpaceOnUse" />
    <linearGradient
       inkscape:collect="always"
       xlink:href="#linearGradient19"
       id="linearGradient143"
       gradientUnits="userSpaceOnUse"
       x1="62.971531"
       y1="76.994598"
       x2="49.742218"
       y2="61.913185" />
    <linearGradient
       inkscape:collect="always"
       xlink:href="#linearGradient19"
       id="linearGradient144"
       gradientUnits="userSpaceOnUse"
       x1="70.909119"
       y1="52.652664"
       x2="52.123493"
       y2="46.831768" />
    <linearGradient
       inkscape:collect="always"
       xlink:href="#linearGradient19"
       id="linearGradient145"
       gradientUnits="userSpaceOnUse"
       x1="62.971531"
       y1="76.994598"
       x2="49.742218"
       y2="61.913185" />
    <linearGradient
       inkscape:collect="always"
       xlink:href="#linearGradient19"
       id="linearGradient146"
       gradientUnits="userSpaceOnUse"
       x1="70.909119"
       y1="52.652664"
       x2="52.123493"
       y2="46.831768" />
    <linearGradient
       inkscape:collect="always"
       xlink:href="#linearGradient19"
       id="linearGradient147"
       gradientUnits="userSpaceOnUse"
       x1="62.971531"
       y1="76.994598"
       x2="49.742218"
       y2="61.913185" />
    <linearGradient
       inkscape:collect="always"
       xlink:href="#linearGradient19"
       id="linearGradient148"
       gradientUnits="userSpaceOnUse"
       x1="70.909119"
       y1="52.652664"
       x2="52.123493"
       y2="46.831768" />
    <linearGradient
       inkscape:collect="always"
       xlink:href="#linearGradient19"
       id="linearGradient149"
       gradientUnits="userSpaceOnUse"
       x1="62.971531"
       y1="76.994598"
       x2="49.742218"
       y2="61.913185" />
    <linearGradient
       inkscape:collect="always"
       xlink:href="#linearGradient19"
       id="linearGradient150"
       gradientUnits="userSpaceOnUse"
       x1="70.909119"
       y1="52.652664"
       x2="52.123493"
       y2="46.831768" />
    <linearGradient
       inkscape:collect="always"
       xlink:href="#linearGradient19"
       id="linearGradient151"
       gradientUnits="userSpaceOnUse"
       x1="62.971531"
       y1="76.994598"
       x2="49.742218"
       y2="61.913185" />
    <linearGradient
       inkscape:collect="always"
       xlink:href="#linearGradient19"
       id="linearGradient152"
       gradientUnits="userSpaceOnUse"
       x1="70.909119"
       y1="52.652664"
       x2="52.123493"
       y2="46.831768" />
    <linearGradient
       inkscape:collect="always"
       xlink:href="#linearGradient19"
       id="linearGradient153"
       gradientUnits="userSpaceOnUse"
       x1="62.971531"
       y1="76.994598"
       x2="49.742218"
       y2="61.913185" />
    <linearGradient
       inkscape:collect="always"
       xlink:href="#linearGradient19"
       id="linearGradient154"
       gradientUnits="userSpaceOnUse"
       x1="70.909119"
       y1="52.652664"
       x2="52.123493"
       y2="46.831768" />
  </defs>
  <g
     inkscape:label="Layer 1"
     inkscape:groupmode="layer"
     id="layer1">
    <g
       id="g20">
      <g
         id="g10" />
      <g
         id="g154">
        <g
           id="g143"
           transform="matrix(1.3691091,0,0,1.1226462,-299.9491,-57.00118)">
          <g
             id="g33"
             transform="matrix(1.0769832,0,0,1.0272506,199.92336,44.31664)"
             style="fill:#ffe9a6;stroke:none">
            <path
               style="fill:#ffe9a6;fill-opacity:1;stroke:none;stroke-opacity:1"
               d="m 89.959328,57.150632 c 11.377212,5.291725 0.558521,36.261614 -0.499829,36.790786 -1.05834,0.529173 -5.556309,9.789692 -5.556309,9.789692 L 44.979664,103.9824 C 37.703542,96.706278 38.629594,71.43829 38.629594,71.43829 43.921319,60.325667 89.959328,57.150632 89.959328,57.150632 Z"
               id="path24"
               sodipodi:nodetypes="cscccc" />
            <path
               style="fill:#ffe9a6;fill-opacity:1;stroke:none;stroke-opacity:1"
               d="M 51.594321,103.9824 50.403683,87.313466 47.228647,82.550913 52.123493,85.990535 55.166235,82.8155 Z"
               id="path25" />
            <path
               style="fill:#ffe9a6;fill-opacity:1;stroke:none;stroke-opacity:1"
               d="m 66.014272,104.37928 c 0,0 2.674807,-5.188372 -0.412191,-19.687904 4.115997,7.015903 18.404057,7.649229 18.404057,7.649229 L 70.313799,91.546846 67.959921,103.22074 Z"
               id="path26"
               sodipodi:nodetypes="cccccc" />
            <g
               id="g32"
               transform="matrix(1.9674861,0,0,1.9674861,-56.561701,-56.371077)"
               style="fill:#ffe9a6;stroke:none">
              <path
                 style="fill:#ffe9a6;fill-opacity:1;stroke:none;stroke-opacity:1"
                 d="m 53.475177,39.432624 c 0,0 -10.704445,0.82383 -10.638298,2.411348 -3.638061,4.63026 -5.117252,15.652736 -2.689204,18.18981 1.184561,4.806238 5.526084,22.519409 5.526084,22.519409 1.543499,4.069224 3.971631,-0.709219 3.971631,-0.709219 0,0 -2.859668,-6.412311 -2.672577,-11.744397 0.177305,-9.042553 3.949173,-11.376171 3.949173,-11.376171 l 0.814279,7.411962 c 0,0 3.369532,1.121241 6.504084,0.759349 2.282952,-0.263573 4.44126,-1.313871 5.08237,-4.157056 C 73.70773,64.126737 84.023041,50.272886 73.73305,41.479621 l -8.713578,-9.09448 c -4.762553,1.058345 -7.572663,3.785072 -7.572663,3.785072 z"
                 id="path27"
                 sodipodi:nodetypes="ccccccccsccccc" />
              <path
                 style="fill:#ffe9a6;fill-opacity:1;stroke:none;stroke-opacity:1"
                 id="path28"
                 sodipodi:type="arc"
                 sodipodi:cx="50.921986"
                 sodipodi:cy="47.730495"
                 sodipodi:rx="1.6312057"
                 sodipodi:ry="1.9148936"
                 sodipodi:start="0"
                 sodipodi:end="5.3173646"
                 sodipodi:arc-type="slice"
                 d="m 52.553191,47.730495 a 1.6312057,1.9148936 0 0 1 -1.241158,1.859345 1.6312057,1.9148936 0 0 1 -1.83472,-0.970147 1.6312057,1.9148936 0 0 1 0.363737,-2.3233 1.6312057,1.9148936 0 0 1 2.008671,-0.140928 l -0.927735,1.57503 z" />
              <path
                 style="fill:#ffe9a6;fill-opacity:1;stroke:none;stroke-opacity:1"
                 d="m 53.227315,39.593077 -0.327408,2.245089 1.052385,-2.186623 z"
                 id="path29" />
              <path
                 style="fill:#ffe9a6;fill-opacity:1;stroke:none;stroke-opacity:1"
                 d="m 64.162168,62.243918 -6.085483,-4.034941 c 0,0 5.225578,5.424019 4.894845,5.490165 -0.330733,0.06615 1.190638,-1.455224 1.190638,-1.455224 z"
                 id="path30"
                 sodipodi:nodetypes="ccsc" />
              <path
                 style="fill:#ffe9a6;fill-opacity:1;stroke:none;stroke-opacity:1"
                 d="m 53.274088,61.844715 -4.069223,1.870907 -5.519178,1.777362 c 0,0 5.791218,-3.685306 7.577175,-9.307764 z"
                 id="path31"
                 sodipodi:nodetypes="ccccc" />
              <path
                 style="fill:#ffe9a6;fill-opacity:1;stroke:none;stroke-opacity:1"
                 d="m 52.685417,40.574615 c 0,0 -6.026459,-0.19431 -9.102274,1.889308 0,0 -4.236939,6.558552 -3.311861,14.692298 l 1.169317,2.572497 1.028999,-0.280636 -1.169317,1.309636 c 0,0 5.089223,23.407663 6.114495,22.250098"
                 id="path32"
                 sodipodi:nodetypes="ccccccc" />
            </g>
          </g>
          <g
             id="g23"
             transform="matrix(1.0218649,0,0,0.98437887,203.12408,46.862699)">
            <path
               style="fill:url(#linearGradient143);fill-opacity:1;stroke:#000000;stroke-opacity:1"
               d="m 89.959328,57.150632 c 11.377212,5.291725 0.558521,36.261614 -0.499829,36.790786 -1.05834,0.529173 -5.556309,9.789692 -5.556309,9.789692 L 44.979664,103.9824 C 37.703542,96.706278 38.629594,71.43829 38.629594,71.43829 43.921319,60.325667 89.959328,57.150632 89.959328,57.150632 Z"
               id="path21"
               sodipodi:nodetypes="cscccc" />
            <path
               style="fill:#000000;fill-opacity:1;stroke:none;stroke-opacity:1"
               d="M 51.594321,103.9824 50.403683,87.313466 47.228647,82.550913 52.123493,85.990535 55.166235,82.8155 Z"
               id="path22" />
            <path
               style="fill:#000000;fill-opacity:1;stroke:none;stroke-opacity:1"
               d="m 66.014272,104.37928 c 0,0 2.674807,-5.188372 -0.412191,-19.687904 4.115997,7.015903 18.404057,7.649229 18.404057,7.649229 L 70.313799,91.546846 67.959921,103.22074 Z"
               id="path23"
               sodipodi:nodetypes="cccccc" />
            <g
               id="g21"
               transform="matrix(1.9674861,0,0,1.9674861,-56.561701,-56.371077)">
              <path
                 style="fill:url(#linearGradient144);fill-opacity:1;stroke:#000000;stroke-opacity:1"
                 d="m 53.475177,39.432624 c 0,0 -10.704445,0.82383 -10.638298,2.411348 -3.638061,4.63026 -5.117252,15.652736 -2.689204,18.18981 1.184561,4.806238 5.526084,22.519409 5.526084,22.519409 1.543499,4.069224 3.971631,-0.709219 3.971631,-0.709219 0,0 -2.859668,-6.412311 -2.672577,-11.744397 0.177305,-9.042553 3.949173,-11.376171 3.949173,-11.376171 l 0.814279,7.411962 c 0,0 3.369532,1.121241 6.504084,0.759349 2.282952,-0.263573 4.44126,-1.313871 5.08237,-4.157056 C 73.70773,64.126737 84.023041,50.272886 73.73305,41.479621 l -8.713578,-9.09448 c -4.762553,1.058345 -7.572663,3.785072 -7.572663,3.785072 z"
                 id="path4"
                 sodipodi:nodetypes="ccccccccsccccc" />
              <path
                 style="fill:#000000;fill-opacity:1;stroke:none;stroke-opacity:1"
                 id="path5"
                 sodipodi:type="arc"
                 sodipodi:cx="50.921986"
                 sodipodi:cy="47.730495"
                 sodipodi:rx="1.6312057"
                 sodipodi:ry="1.9148936"
                 sodipodi:start="0"
                 sodipodi:end="5.3173646"
                 sodipodi:arc-type="slice"
                 d="m 52.553191,47.730495 a 1.6312057,1.9148936 0 0 1 -1.241158,1.859345 1.6312057,1.9148936 0 0 1 -1.83472,-0.970147 1.6312057,1.9148936 0 0 1 0.363737,-2.3233 1.6312057,1.9148936 0 0 1 2.008671,-0.140928 l -0.927735,1.57503 z" />
              <path
                 style="fill:#000000;fill-opacity:1;stroke:none;stroke-opacity:1"
                 d="m 53.227315,39.593077 -0.327408,2.245089 1.052385,-2.186623 z"
                 id="path6" />
              <path
                 style="fill:#000000;fill-opacity:1;stroke:none;stroke-opacity:1"
                 d="m 64.162168,62.243918 -6.085483,-4.034941 c 0,0 5.225578,5.424019 4.894845,5.490165 -0.330733,0.06615 1.190638,-1.455224 1.190638,-1.455224 z"
                 id="path7"
                 sodipodi:nodetypes="ccsc" />
              <path
                 style="fill:#ffffff;fill-opacity:1;stroke:#000000;stroke-opacity:1"
                 d="m 53.274088,61.844715 -4.069223,1.870907 -5.519178,1.777362 c 0,0 5.791218,-3.685306 7.577175,-9.307764 z"
                 id="path9"
                 sodipodi:nodetypes="ccccc" />
              <path
                 style="fill:none;fill-opacity:1;stroke:#ffe9a6;stroke-opacity:1"
                 d="m 52.685417,40.574615 c 0,0 -6.026459,-0.19431 -9.102274,1.889308 0,0 -4.236939,6.558552 -3.311861,14.692298 l 1.169317,2.572497 1.028999,-0.280636 -1.169317,1.309636 c 0,0 5.089223,23.407663 6.114495,22.250098"
                 id="path10"
                 sodipodi:nodetypes="ccccccc" />
            </g>
          </g>
          <g
             id="g43"
             transform="matrix(1.0769832,0,0,1.0272506,199.92336,44.31664)"
             style="fill:#ffe9a6;stroke:none">
            <path
               style="fill:#ffe9a6;fill-opacity:1;stroke:none;stroke-opacity:1"
               d="m 89.959328,57.150632 c 11.377212,5.291725 0.558521,36.261614 -0.499829,36.790786 -1.05834,0.529173 -5.556309,9.789692 -5.556309,9.789692 L 44.979664,103.9824 C 37.703542,96.706278 38.629594,71.43829 38.629594,71.43829 43.921319,60.325667 89.959328,57.150632 89.959328,57.150632 Z"
               id="path34"
               sodipodi:nodetypes="cscccc" />
            <path
               style="fill:#ffe9a6;fill-opacity:1;stroke:none;stroke-opacity:1"
               d="M 51.594321,103.9824 50.403683,87.313466 47.228647,82.550913 52.123493,85.990535 55.166235,82.8155 Z"
               id="path35" />
            <path
               style="fill:#ffe9a6;fill-opacity:1;stroke:none;stroke-opacity:1"
               d="m 66.014272,104.37928 c 0,0 2.674807,-5.188372 -0.412191,-19.687904 4.115997,7.015903 18.404057,7.649229 18.404057,7.649229 L 70.313799,91.546846 67.959921,103.22074 Z"
               id="path36"
               sodipodi:nodetypes="cccccc" />
            <g
               id="g42"
               transform="matrix(1.9674861,0,0,1.9674861,-56.561701,-56.371077)"
               style="fill:#ffe9a6;stroke:none">
              <path
                 style="fill:#ffe9a6;fill-opacity:1;stroke:none;stroke-opacity:1"
                 d="m 53.475177,39.432624 c 0,0 -10.704445,0.82383 -10.638298,2.411348 -3.638061,4.63026 -5.117252,15.652736 -2.689204,18.18981 1.184561,4.806238 5.526084,22.519409 5.526084,22.519409 1.543499,4.069224 3.971631,-0.709219 3.971631,-0.709219 0,0 -2.859668,-6.412311 -2.672577,-11.744397 0.177305,-9.042553 3.949173,-11.376171 3.949173,-11.376171 l 0.814279,7.411962 c 0,0 3.369532,1.121241 6.504084,0.759349 2.282952,-0.263573 4.44126,-1.313871 5.08237,-4.157056 C 73.70773,64.126737 84.023041,50.272886 73.73305,41.479621 l -8.713578,-9.09448 c -4.762553,1.058345 -7.572663,3.785072 -7.572663,3.785072 z"
                 id="path37"
                 sodipodi:nodetypes="ccccccccsccccc" />
              <path
                 style="fill:#ffe9a6;fill-opacity:1;stroke:none;stroke-opacity:1"
                 id="path38"
                 sodipodi:type="arc"
                 sodipodi:cx="50.921986"
                 sodipodi:cy="47.730495"
                 sodipodi:rx="1.6312057"
                 sodipodi:ry="1.9148936"
                 sodipodi:start="0"
                 sodipodi:end="5.3173646"
                 sodipodi:arc-type="slice"
                 d="m 52.553191,47.730495 a 1.6312057,1.9148936 0 0 1 -1.241158,1.859345 1.6312057,1.9148936 0 0 1 -1.83472,-0.970147 1.6312057,1.9148936 0 0 1 0.363737,-2.3233 1.6312057,1.9148936 0 0 1 2.008671,-0.140928 l -0.927735,1.57503 z" />
              <path
                 style="fill:#ffe9a6;fill-opacity:1;stroke:none;stroke-opacity:1"
                 d="m 53.227315,39.593077 -0.327408,2.245089 1.052385,-2.186623 z"
                 id="path39" />
              <path
                 style="fill:#ffe9a6;fill-opacity:1;stroke:none;stroke-opacity:1"
                 d="m 64.162168,62.243918 -6.085483,-4.034941 c 0,0 5.225578,5.424019 4.894845,5.490165 -0.330733,0.06615 1.190638,-1.455224 1.190638,-1.455224 z"
                 id="path40"
                 sodipodi:nodetypes="ccsc" />
              <path
                 style="fill:#ffe9a6;fill-opacity:1;stroke:none;stroke-opacity:1"
                 d="m 53.274088,61.844715 -4.069223,1.870907 -5.519178,1.777362 c 0,0 5.791218,-3.685306 7.577175,-9.307764 z"
                 id="path41"
                 sodipodi:nodetypes="ccccc" />
              <path
                 style="fill:#ffe9a6;fill-opacity:1;stroke:none;stroke-opacity:1"
                 d="m 52.685417,40.574615 c 0,0 -6.026459,-0.19431 -9.102274,1.889308 0,0 -4.236939,6.558552 -3.311861,14.692298 l 1.169317,2.572497 1.028999,-0.280636 -1.169317,1.309636 c 0,0 5.089223,23.407663 6.114495,22.250098"
                 id="path42"
                 sodipodi:nodetypes="ccccccc" />
            </g>
          </g>
          <g
             id="g52"
             transform="matrix(1.0218649,0,0,0.98437887,203.12408,46.862699)">
            <path
               style="fill:url(#linearGradient145);fill-opacity:1;stroke:#000000;stroke-opacity:1"
               d="m 89.959328,57.150632 c 11.377212,5.291725 0.558521,36.261614 -0.499829,36.790786 -1.05834,0.529173 -5.556309,9.789692 -5.556309,9.789692 L 44.979664,103.9824 C 37.703542,96.706278 38.629594,71.43829 38.629594,71.43829 43.921319,60.325667 89.959328,57.150632 89.959328,57.150632 Z"
               id="path43"
               sodipodi:nodetypes="cscccc" />
            <path
               style="fill:#000000;fill-opacity:1;stroke:none;stroke-opacity:1"
               d="M 51.594321,103.9824 50.403683,87.313466 47.228647,82.550913 52.123493,85.990535 55.166235,82.8155 Z"
               id="path44" />
            <path
               style="fill:#000000;fill-opacity:1;stroke:none;stroke-opacity:1"
               d="m 66.014272,104.37928 c 0,0 2.674807,-5.188372 -0.412191,-19.687904 4.115997,7.015903 18.404057,7.649229 18.404057,7.649229 L 70.313799,91.546846 67.959921,103.22074 Z"
               id="path45"
               sodipodi:nodetypes="cccccc" />
            <g
               id="g51"
               transform="matrix(1.9674861,0,0,1.9674861,-56.561701,-56.371077)">
              <path
                 style="fill:url(#linearGradient146);fill-opacity:1;stroke:#000000;stroke-opacity:1"
                 d="m 53.475177,39.432624 c 0,0 -10.704445,0.82383 -10.638298,2.411348 -3.638061,4.63026 -5.117252,15.652736 -2.689204,18.18981 1.184561,4.806238 5.526084,22.519409 5.526084,22.519409 1.543499,4.069224 3.971631,-0.709219 3.971631,-0.709219 0,0 -2.859668,-6.412311 -2.672577,-11.744397 0.177305,-9.042553 3.949173,-11.376171 3.949173,-11.376171 l 0.814279,7.411962 c 0,0 3.369532,1.121241 6.504084,0.759349 2.282952,-0.263573 4.44126,-1.313871 5.08237,-4.157056 C 73.70773,64.126737 84.023041,50.272886 73.73305,41.479621 l -8.713578,-9.09448 c -4.762553,1.058345 -7.572663,3.785072 -7.572663,3.785072 z"
                 id="path46"
                 sodipodi:nodetypes="ccccccccsccccc" />
              <path
                 style="fill:#000000;fill-opacity:1;stroke:none;stroke-opacity:1"
                 id="path47"
                 sodipodi:type="arc"
                 sodipodi:cx="50.921986"
                 sodipodi:cy="47.730495"
                 sodipodi:rx="1.6312057"
                 sodipodi:ry="1.9148936"
                 sodipodi:start="0"
                 sodipodi:end="5.3173646"
                 sodipodi:arc-type="slice"
                 d="m 52.553191,47.730495 a 1.6312057,1.9148936 0 0 1 -1.241158,1.859345 1.6312057,1.9148936 0 0 1 -1.83472,-0.970147 1.6312057,1.9148936 0 0 1 0.363737,-2.3233 1.6312057,1.9148936 0 0 1 2.008671,-0.140928 l -0.927735,1.57503 z" />
              <path
                 style="fill:#000000;fill-opacity:1;stroke:none;stroke-opacity:1"
                 d="m 53.227315,39.593077 -0.327408,2.245089 1.052385,-2.186623 z"
                 id="path48" />
              <path
                 style="fill:#000000;fill-opacity:1;stroke:none;stroke-opacity:1"
                 d="m 64.162168,62.243918 -6.085483,-4.034941 c 0,0 5.225578,5.424019 4.894845,5.490165 -0.330733,0.06615 1.190638,-1.455224 1.190638,-1.455224 z"
                 id="path49"
                 sodipodi:nodetypes="ccsc" />
              <path
                 style="fill:#ffffff;fill-opacity:1;stroke:#000000;stroke-opacity:1"
                 d="m 53.274088,61.844715 -4.069223,1.870907 -5.519178,1.777362 c 0,0 5.791218,-3.685306 7.577175,-9.307764 z"
                 id="path50"
                 sodipodi:nodetypes="ccccc" />
              <path
                 style="fill:none;fill-opacity:1;stroke:#ffe9a6;stroke-opacity:1"
                 d="m 52.685417,40.574615 c 0,0 -6.026459,-0.19431 -9.102274,1.889308 0,0 -4.236939,6.558552 -3.311861,14.692298 l 1.169317,2.572497 1.028999,-0.280636 -1.169317,1.309636 c 0,0 5.089223,23.407663 6.114495,22.250098"
                 id="path51"
                 sodipodi:nodetypes="ccccccc" />
            </g>
          </g>
          <g
             id="g61"
             transform="matrix(1.0769832,0,0,1.0272506,199.92336,44.31664)"
             style="fill:#ffe9a6;stroke:none">
            <path
               style="fill:#ffe9a6;fill-opacity:1;stroke:none;stroke-opacity:1"
               d="m 89.959328,57.150632 c 11.377212,5.291725 0.558521,36.261614 -0.499829,36.790786 -1.05834,0.529173 -5.556309,9.789692 -5.556309,9.789692 L 44.979664,103.9824 C 37.703542,96.706278 38.629594,71.43829 38.629594,71.43829 43.921319,60.325667 89.959328,57.150632 89.959328,57.150632 Z"
               id="path52"
               sodipodi:nodetypes="cscccc" />
            <path
               style="fill:#ffe9a6;fill-opacity:1;stroke:none;stroke-opacity:1"
               d="M 51.594321,103.9824 50.403683,87.313466 47.228647,82.550913 52.123493,85.990535 55.166235,82.8155 Z"
               id="path53" />
            <path
               style="fill:#ffe9a6;fill-opacity:1;stroke:none;stroke-opacity:1"
               d="m 66.014272,104.37928 c 0,0 2.674807,-5.188372 -0.412191,-19.687904 4.115997,7.015903 18.404057,7.649229 18.404057,7.649229 L 70.313799,91.546846 67.959921,103.22074 Z"
               id="path54"
               sodipodi:nodetypes="cccccc" />
            <g
               id="g60"
               transform="matrix(1.9674861,0,0,1.9674861,-56.561701,-56.371077)"
               style="fill:#ffe9a6;stroke:none">
              <path
                 style="fill:#ffe9a6;fill-opacity:1;stroke:none;stroke-opacity:1"
                 d="m 53.475177,39.432624 c 0,0 -10.704445,0.82383 -10.638298,2.411348 -3.638061,4.63026 -5.117252,15.652736 -2.689204,18.18981 1.184561,4.806238 5.526084,22.519409 5.526084,22.519409 1.543499,4.069224 3.971631,-0.709219 3.971631,-0.709219 0,0 -2.859668,-6.412311 -2.672577,-11.744397 0.177305,-9.042553 3.949173,-11.376171 3.949173,-11.376171 l 0.814279,7.411962 c 0,0 3.369532,1.121241 6.504084,0.759349 2.282952,-0.263573 4.44126,-1.313871 5.08237,-4.157056 C 73.70773,64.126737 84.023041,50.272886 73.73305,41.479621 l -8.713578,-9.09448 c -4.762553,1.058345 -7.572663,3.785072 -7.572663,3.785072 z"
                 id="path55"
                 sodipodi:nodetypes="ccccccccsccccc" />
              <path
                 style="fill:#ffe9a6;fill-opacity:1;stroke:none;stroke-opacity:1"
                 id="path56"
                 sodipodi:type="arc"
                 sodipodi:cx="50.921986"
                 sodipodi:cy="47.730495"
                 sodipodi:rx="1.6312057"
                 sodipodi:ry="1.9148936"
                 sodipodi:start="0"
                 sodipodi:end="5.3173646"
                 sodipodi:arc-type="slice"
                 d="m 52.553191,47.730495 a 1.6312057,1.9148936 0 0 1 -1.241158,1.859345 1.6312057,1.9148936 0 0 1 -1.83472,-0.970147 1.6312057,1.9148936 0 0 1 0.363737,-2.3233 1.6312057,1.9148936 0 0 1 2.008671,-0.140928 l -0.927735,1.57503 z" />
              <path
                 style="fill:#ffe9a6;fill-opacity:1;stroke:none;stroke-opacity:1"
                 d="m 53.227315,39.593077 -0.327408,2.245089 1.052385,-2.186623 z"
                 id="path57" />
              <path
                 style="fill:#ffe9a6;fill-opacity:1;stroke:none;stroke-opacity:1"
                 d="m 64.162168,62.243918 -6.085483,-4.034941 c 0,0 5.225578,5.424019 4.894845,5.490165 -0.330733,0.06615 1.190638,-1.455224 1.190638,-1.455224 z"
                 id="path58"
                 sodipodi:nodetypes="ccsc" />
              <path
                 style="fill:#ffe9a6;fill-opacity:1;stroke:none;stroke-opacity:1"
                 d="m 53.274088,61.844715 -4.069223,1.870907 -5.519178,1.777362 c 0,0 5.791218,-3.685306 7.577175,-9.307764 z"
                 id="path59"
                 sodipodi:nodetypes="ccccc" />
              <path
                 style="fill:#ffe9a6;fill-opacity:1;stroke:none;stroke-opacity:1"
                 d="m 52.685417,40.574615 c 0,0 -6.026459,-0.19431 -9.102274,1.889308 0,0 -4.236939,6.558552 -3.311861,14.692298 l 1.169317,2.572497 1.028999,-0.280636 -1.169317,1.309636 c 0,0 5.089223,23.407663 6.114495,22.250098"
                 id="path60"
                 sodipodi:nodetypes="ccccccc" />
            </g>
          </g>
          <g
             id="g70"
             transform="matrix(1.0218649,0,0,0.98437887,203.12408,46.862699)">
            <path
               style="fill:url(#linearGradient147);fill-opacity:1;stroke:#000000;stroke-opacity:1"
               d="m 89.959328,57.150632 c 11.377212,5.291725 0.558521,36.261614 -0.499829,36.790786 -1.05834,0.529173 -5.556309,9.789692 -5.556309,9.789692 L 44.979664,103.9824 C 37.703542,96.706278 38.629594,71.43829 38.629594,71.43829 43.921319,60.325667 89.959328,57.150632 89.959328,57.150632 Z"
               id="path61"
               sodipodi:nodetypes="cscccc" />
            <path
               style="fill:#000000;fill-opacity:1;stroke:none;stroke-opacity:1"
               d="M 51.594321,103.9824 50.403683,87.313466 47.228647,82.550913 52.123493,85.990535 55.166235,82.8155 Z"
               id="path62" />
            <path
               style="fill:#000000;fill-opacity:1;stroke:none;stroke-opacity:1"
               d="m 66.014272,104.37928 c 0,0 2.674807,-5.188372 -0.412191,-19.687904 4.115997,7.015903 18.404057,7.649229 18.404057,7.649229 L 70.313799,91.546846 67.959921,103.22074 Z"
               id="path63"
               sodipodi:nodetypes="cccccc" />
            <g
               id="g69"
               transform="matrix(1.9674861,0,0,1.9674861,-56.561701,-56.371077)">
              <path
                 style="fill:url(#linearGradient148);fill-opacity:1;stroke:#000000;stroke-opacity:1"
                 d="m 53.475177,39.432624 c 0,0 -10.704445,0.82383 -10.638298,2.411348 -3.638061,4.63026 -5.117252,15.652736 -2.689204,18.18981 1.184561,4.806238 5.526084,22.519409 5.526084,22.519409 1.543499,4.069224 3.971631,-0.709219 3.971631,-0.709219 0,0 -2.859668,-6.412311 -2.672577,-11.744397 0.177305,-9.042553 3.949173,-11.376171 3.949173,-11.376171 l 0.814279,7.411962 c 0,0 3.369532,1.121241 6.504084,0.759349 2.282952,-0.263573 4.44126,-1.313871 5.08237,-4.157056 C 73.70773,64.126737 84.023041,50.272886 73.73305,41.479621 l -8.713578,-9.09448 c -4.762553,1.058345 -7.572663,3.785072 -7.572663,3.785072 z"
                 id="path64"
                 sodipodi:nodetypes="ccccccccsccccc" />
              <path
                 style="fill:#000000;fill-opacity:1;stroke:none;stroke-opacity:1"
                 id="path65"
                 sodipodi:type="arc"
                 sodipodi:cx="50.921986"
                 sodipodi:cy="47.730495"
                 sodipodi:rx="1.6312057"
                 sodipodi:ry="1.9148936"
                 sodipodi:start="0"
                 sodipodi:end="5.3173646"
                 sodipodi:arc-type="slice"
                 d="m 52.553191,47.730495 a 1.6312057,1.9148936 0 0 1 -1.241158,1.859345 1.6312057,1.9148936 0 0 1 -1.83472,-0.970147 1.6312057,1.9148936 0 0 1 0.363737,-2.3233 1.6312057,1.9148936 0 0 1 2.008671,-0.140928 l -0.927735,1.57503 z" />
              <path
                 style="fill:#000000;fill-opacity:1;stroke:none;stroke-opacity:1"
                 d="m 53.227315,39.593077 -0.327408,2.245089 1.052385,-2.186623 z"
                 id="path66" />
              <path
                 style="fill:#000000;fill-opacity:1;stroke:none;stroke-opacity:1"
                 d="m 64.162168,62.243918 -6.085483,-4.034941 c 0,0 5.225578,5.424019 4.894845,5.490165 -0.330733,0.06615 1.190638,-1.455224 1.190638,-1.455224 z"
                 id="path67"
                 sodipodi:nodetypes="ccsc" />
              <path
                 style="fill:#ffffff;fill-opacity:1;stroke:#000000;stroke-opacity:1"
                 d="m 53.274088,61.844715 -4.069223,1.870907 -5.519178,1.777362 c 0,0 5.791218,-3.685306 7.577175,-9.307764 z"
                 id="path68"
                 sodipodi:nodetypes="ccccc" />
              <path
                 style="fill:none;fill-opacity:1;stroke:#ffe9a6;stroke-opacity:1"
                 d="m 52.685417,40.574615 c 0,0 -6.026459,-0.19431 -9.102274,1.889308 0,0 -4.236939,6.558552 -3.311861,14.692298 l 1.169317,2.572497 1.028999,-0.280636 -1.169317,1.309636 c 0,0 5.089223,23.407663 6.114495,22.250098"
                 id="path69"
                 sodipodi:nodetypes="ccccccc" />
            </g>
          </g>
          <g
             id="g79"
             transform="matrix(1.0769832,0,0,1.0272506,199.92336,44.31664)"
             style="fill:#ffe9a6;stroke:none">
            <path
               style="fill:#ffe9a6;fill-opacity:1;stroke:none;stroke-opacity:1"
               d="m 89.959328,57.150632 c 11.377212,5.291725 0.558521,36.261614 -0.499829,36.790786 -1.05834,0.529173 -5.556309,9.789692 -5.556309,9.789692 L 44.979664,103.9824 C 37.703542,96.706278 38.629594,71.43829 38.629594,71.43829 43.921319,60.325667 89.959328,57.150632 89.959328,57.150632 Z"
               id="path70"
               sodipodi:nodetypes="cscccc" />
            <path
               style="fill:#ffe9a6;fill-opacity:1;stroke:none;stroke-opacity:1"
               d="M 51.594321,103.9824 50.403683,87.313466 47.228647,82.550913 52.123493,85.990535 55.166235,82.8155 Z"
               id="path71" />
            <path
               style="fill:#ffe9a6;fill-opacity:1;stroke:none;stroke-opacity:1"
               d="m 66.014272,104.37928 c 0,0 2.674807,-5.188372 -0.412191,-19.687904 4.115997,7.015903 18.404057,7.649229 18.404057,7.649229 L 70.313799,91.546846 67.959921,103.22074 Z"
               id="path72"
               sodipodi:nodetypes="cccccc" />
            <g
               id="g78"
               transform="matrix(1.9674861,0,0,1.9674861,-56.561701,-56.371077)"
               style="fill:#ffe9a6;stroke:none">
              <path
                 style="fill:#ffe9a6;fill-opacity:1;stroke:none;stroke-opacity:1"
                 d="m 53.475177,39.432624 c 0,0 -10.704445,0.82383 -10.638298,2.411348 -3.638061,4.63026 -5.117252,15.652736 -2.689204,18.18981 1.184561,4.806238 5.526084,22.519409 5.526084,22.519409 1.543499,4.069224 3.971631,-0.709219 3.971631,-0.709219 0,0 -2.859668,-6.412311 -2.672577,-11.744397 0.177305,-9.042553 3.949173,-11.376171 3.949173,-11.376171 l 0.814279,7.411962 c 0,0 3.369532,1.121241 6.504084,0.759349 2.282952,-0.263573 4.44126,-1.313871 5.08237,-4.157056 C 73.70773,64.126737 84.023041,50.272886 73.73305,41.479621 l -8.713578,-9.09448 c -4.762553,1.058345 -7.572663,3.785072 -7.572663,3.785072 z"
                 id="path73"
                 sodipodi:nodetypes="ccccccccsccccc" />
              <path
                 style="fill:#ffe9a6;fill-opacity:1;stroke:none;stroke-opacity:1"
                 id="path74"
                 sodipodi:type="arc"
                 sodipodi:cx="50.921986"
                 sodipodi:cy="47.730495"
                 sodipodi:rx="1.6312057"
                 sodipodi:ry="1.9148936"
                 sodipodi:start="0"
                 sodipodi:end="5.3173646"
                 sodipodi:arc-type="slice"
                 d="m 52.553191,47.730495 a 1.6312057,1.9148936 0 0 1 -1.241158,1.859345 1.6312057,1.9148936 0 0 1 -1.83472,-0.970147 1.6312057,1.9148936 0 0 1 0.363737,-2.3233 1.6312057,1.9148936 0 0 1 2.008671,-0.140928 l -0.927735,1.57503 z" />
              <path
                 style="fill:#ffe9a6;fill-opacity:1;stroke:none;stroke-opacity:1"
                 d="m 53.227315,39.593077 -0.327408,2.245089 1.052385,-2.186623 z"
                 id="path75" />
              <path
                 style="fill:#ffe9a6;fill-opacity:1;stroke:none;stroke-opacity:1"
                 d="m 64.162168,62.243918 -6.085483,-4.034941 c 0,0 5.225578,5.424019 4.894845,5.490165 -0.330733,0.06615 1.190638,-1.455224 1.190638,-1.455224 z"
                 id="path76"
                 sodipodi:nodetypes="ccsc" />
              <path
                 style="fill:#ffe9a6;fill-opacity:1;stroke:none;stroke-opacity:1"
                 d="m 53.274088,61.844715 -4.069223,1.870907 -5.519178,1.777362 c 0,0 5.791218,-3.685306 7.577175,-9.307764 z"
                 id="path77"
                 sodipodi:nodetypes="ccccc" />
              <path
                 style="fill:#ffe9a6;fill-opacity:1;stroke:none;stroke-opacity:1"
                 d="m 52.685417,40.574615 c 0,0 -6.026459,-0.19431 -9.102274,1.889308 0,0 -4.236939,6.558552 -3.311861,14.692298 l 1.169317,2.572497 1.028999,-0.280636 -1.169317,1.309636 c 0,0 5.089223,23.407663 6.114495,22.250098"
                 id="path78"
                 sodipodi:nodetypes="ccccccc" />
            </g>
          </g>
          <g
             id="g88"
             transform="matrix(1.0218649,0,0,0.98437887,203.12408,46.862699)">
            <path
               style="fill:url(#linearGradient149);fill-opacity:1;stroke:#000000;stroke-opacity:1"
               d="m 89.959328,57.150632 c 11.377212,5.291725 0.558521,36.261614 -0.499829,36.790786 -1.05834,0.529173 -5.556309,9.789692 -5.556309,9.789692 L 44.979664,103.9824 C 37.703542,96.706278 38.629594,71.43829 38.629594,71.43829 43.921319,60.325667 89.959328,57.150632 89.959328,57.150632 Z"
               id="path79"
               sodipodi:nodetypes="cscccc" />
            <path
               style="fill:#000000;fill-opacity:1;stroke:none;stroke-opacity:1"
               d="M 51.594321,103.9824 50.403683,87.313466 47.228647,82.550913 52.123493,85.990535 55.166235,82.8155 Z"
               id="path80" />
            <path
               style="fill:#000000;fill-opacity:1;stroke:none;stroke-opacity:1"
               d="m 66.014272,104.37928 c 0,0 2.674807,-5.188372 -0.412191,-19.687904 4.115997,7.015903 18.404057,7.649229 18.404057,7.649229 L 70.313799,91.546846 67.959921,103.22074 Z"
               id="path81"
               sodipodi:nodetypes="cccccc" />
            <g
               id="g87"
               transform="matrix(1.9674861,0,0,1.9674861,-56.561701,-56.371077)">
              <path
                 style="fill:url(#linearGradient150);fill-opacity:1;stroke:#000000;stroke-opacity:1"
                 d="m 53.475177,39.432624 c 0,0 -10.704445,0.82383 -10.638298,2.411348 -3.638061,4.63026 -5.117252,15.652736 -2.689204,18.18981 1.184561,4.806238 5.526084,22.519409 5.526084,22.519409 1.543499,4.069224 3.971631,-0.709219 3.971631,-0.709219 0,0 -2.859668,-6.412311 -2.672577,-11.744397 0.177305,-9.042553 3.949173,-11.376171 3.949173,-11.376171 l 0.814279,7.411962 c 0,0 3.369532,1.121241 6.504084,0.759349 2.282952,-0.263573 4.44126,-1.313871 5.08237,-4.157056 C 73.70773,64.126737 84.023041,50.272886 73.73305,41.479621 l -8.713578,-9.09448 c -4.762553,1.058345 -7.572663,3.785072 -7.572663,3.785072 z"
                 id="path82"
                 sodipodi:nodetypes="ccccccccsccccc" />
              <path
                 style="fill:#000000;fill-opacity:1;stroke:none;stroke-opacity:1"
                 id="path83"
                 sodipodi:type="arc"
                 sodipodi:cx="50.921986"
                 sodipodi:cy="47.730495"
                 sodipodi:rx="1.6312057"
                 sodipodi:ry="1.9148936"
                 sodipodi:start="0"
                 sodipodi:end="5.3173646"
                 sodipodi:arc-type="slice"
                 d="m 52.553191,47.730495 a 1.6312057,1.9148936 0 0 1 -1.241158,1.859345 1.6312057,1.9148936 0 0 1 -1.83472,-0.970147 1.6312057,1.9148936 0 0 1 0.363737,-2.3233 1.6312057,1.9148936 0 0 1 2.008671,-0.140928 l -0.927735,1.57503 z" />
              <path
                 style="fill:#000000;fill-opacity:1;stroke:none;stroke-opacity:1"
                 d="m 53.227315,39.593077 -0.327408,2.245089 1.052385,-2.186623 z"
                 id="path84" />
              <path
                 style="fill:#000000;fill-opacity:1;stroke:none;stroke-opacity:1"
                 d="m 64.162168,62.243918 -6.085483,-4.034941 c 0,0 5.225578,5.424019 4.894845,5.490165 -0.330733,0.06615 1.190638,-1.455224 1.190638,-1.455224 z"
                 id="path85"
                 sodipodi:nodetypes="ccsc" />
              <path
                 style="fill:#ffffff;fill-opacity:1;stroke:#000000;stroke-opacity:1"
                 d="m 53.274088,61.844715 -4.069223,1.870907 -5.519178,1.777362 c 0,0 5.791218,-3.685306 7.577175,-9.307764 z"
                 id="path86"
                 sodipodi:nodetypes="ccccc" />
              <path
                 style="fill:none;fill-opacity:1;stroke:#ffe9a6;stroke-opacity:1"
                 d="m 52.685417,40.574615 c 0,0 -6.026459,-0.19431 -9.102274,1.889308 0,0 -4.236939,6.558552 -3.311861,14.692298 l 1.169317,2.572497 1.028999,-0.280636 -1.169317,1.309636 c 0,0 5.089223,23.407663 6.114495,22.250098"
                 id="path87"
                 sodipodi:nodetypes="ccccccc" />
            </g>
          </g>
          <g
             id="g97"
             transform="matrix(1.0769832,0,0,1.0272506,199.92336,44.31664)"
             style="fill:#ffe9a6;stroke:none">
            <path
               style="fill:#ffe9a6;fill-opacity:1;stroke:none;stroke-opacity:1"
               d="m 89.959328,57.150632 c 11.377212,5.291725 0.558521,36.261614 -0.499829,36.790786 -1.05834,0.529173 -5.556309,9.789692 -5.556309,9.789692 L 44.979664,103.9824 C 37.703542,96.706278 38.629594,71.43829 38.629594,71.43829 43.921319,60.325667 89.959328,57.150632 89.959328,57.150632 Z"
               id="path88"
               sodipodi:nodetypes="cscccc" />
            <path
               style="fill:#ffe9a6;fill-opacity:1;stroke:none;stroke-opacity:1"
               d="M 51.594321,103.9824 50.403683,87.313466 47.228647,82.550913 52.123493,85.990535 55.166235,82.8155 Z"
               id="path89" />
            <path
               style="fill:#ffe9a6;fill-opacity:1;stroke:none;stroke-opacity:1"
               d="m 66.014272,104.37928 c 0,0 2.674807,-5.188372 -0.412191,-19.687904 4.115997,7.015903 18.404057,7.649229 18.404057,7.649229 L 70.313799,91.546846 67.959921,103.22074 Z"
               id="path90"
               sodipodi:nodetypes="cccccc" />
            <g
               id="g96"
               transform="matrix(1.9674861,0,0,1.9674861,-56.561701,-56.371077)"
               style="fill:#ffe9a6;stroke:none">
              <path
                 style="fill:#ffe9a6;fill-opacity:1;stroke:none;stroke-opacity:1"
                 d="m 53.475177,39.432624 c 0,0 -10.704445,0.82383 -10.638298,2.411348 -3.638061,4.63026 -5.117252,15.652736 -2.689204,18.18981 1.184561,4.806238 5.526084,22.519409 5.526084,22.519409 1.543499,4.069224 3.971631,-0.709219 3.971631,-0.709219 0,0 -2.859668,-6.412311 -2.672577,-11.744397 0.177305,-9.042553 3.949173,-11.376171 3.949173,-11.376171 l 0.814279,7.411962 c 0,0 3.369532,1.121241 6.504084,0.759349 2.282952,-0.263573 4.44126,-1.313871 5.08237,-4.157056 C 73.70773,64.126737 84.023041,50.272886 73.73305,41.479621 l -8.713578,-9.09448 c -4.762553,1.058345 -7.572663,3.785072 -7.572663,3.785072 z"
                 id="path91"
                 sodipodi:nodetypes="ccccccccsccccc" />
              <path
                 style="fill:#ffe9a6;fill-opacity:1;stroke:none;stroke-opacity:1"
                 id="path92"
                 sodipodi:type="arc"
                 sodipodi:cx="50.921986"
                 sodipodi:cy="47.730495"
                 sodipodi:rx="1.6312057"
                 sodipodi:ry="1.9148936"
                 sodipodi:start="0"
                 sodipodi:end="5.3173646"
                 sodipodi:arc-type="slice"
                 d="m 52.553191,47.730495 a 1.6312057,1.9148936 0 0 1 -1.241158,1.859345 1.6312057,1.9148936 0 0 1 -1.83472,-0.970147 1.6312057,1.9148936 0 0 1 0.363737,-2.3233 1.6312057,1.9148936 0 0 1 2.008671,-0.140928 l -0.927735,1.57503 z" />
              <path
                 style="fill:#ffe9a6;fill-opacity:1;stroke:none;stroke-opacity:1"
                 d="m 53.227315,39.593077 -0.327408,2.245089 1.052385,-2.186623 z"
                 id="path93" />
              <path
                 style="fill:#ffe9a6;fill-opacity:1;stroke:none;stroke-opacity:1"
                 d="m 64.162168,62.243918 -6.085483,-4.034941 c 0,0 5.225578,5.424019 4.894845,5.490165 -0.330733,0.06615 1.190638,-1.455224 1.190638,-1.455224 z"
                 id="path94"
                 sodipodi:nodetypes="ccsc" />
              <path
                 style="fill:#ffe9a6;fill-opacity:1;stroke:none;stroke-opacity:1"
                 d="m 53.274088,61.844715 -4.069223,1.870907 -5.519178,1.777362 c 0,0 5.791218,-3.685306 7.577175,-9.307764 z"
                 id="path95"
                 sodipodi:nodetypes="ccccc" />
              <path
                 style="fill:#ffe9a6;fill-opacity:1;stroke:none;stroke-opacity:1"
                 d="m 52.685417,40.574615 c 0,0 -6.026459,-0.19431 -9.102274,1.889308 0,0 -4.236939,6.558552 -3.311861,14.692298 l 1.169317,2.572497 1.028999,-0.280636 -1.169317,1.309636 c 0,0 5.089223,23.407663 6.114495,22.250098"
                 id="path96"
                 sodipodi:nodetypes="ccccccc" />
            </g>
          </g>
          <g
             id="g106"
             transform="matrix(1.0218649,0,0,0.98437887,203.12408,46.862699)">
            <path
               style="fill:url(#linearGradient151);fill-opacity:1;stroke:#000000;stroke-opacity:1"
               d="m 89.959328,57.150632 c 11.377212,5.291725 0.558521,36.261614 -0.499829,36.790786 -1.05834,0.529173 -5.556309,9.789692 -5.556309,9.789692 L 44.979664,103.9824 C 37.703542,96.706278 38.629594,71.43829 38.629594,71.43829 43.921319,60.325667 89.959328,57.150632 89.959328,57.150632 Z"
               id="path97"
               sodipodi:nodetypes="cscccc" />
            <path
               style="fill:#000000;fill-opacity:1;stroke:none;stroke-opacity:1"
               d="M 51.594321,103.9824 50.403683,87.313466 47.228647,82.550913 52.123493,85.990535 55.166235,82.8155 Z"
               id="path98" />
            <path
               style="fill:#000000;fill-opacity:1;stroke:none;stroke-opacity:1"
               d="m 66.014272,104.37928 c 0,0 2.674807,-5.188372 -0.412191,-19.687904 4.115997,7.015903 18.404057,7.649229 18.404057,7.649229 L 70.313799,91.546846 67.959921,103.22074 Z"
               id="path99"
               sodipodi:nodetypes="cccccc" />
            <g
               id="g105"
               transform="matrix(1.9674861,0,0,1.9674861,-56.561701,-56.371077)">
              <path
                 style="fill:url(#linearGradient152);fill-opacity:1;stroke:#000000;stroke-opacity:1"
                 d="m 53.475177,39.432624 c 0,0 -10.704445,0.82383 -10.638298,2.411348 -3.638061,4.63026 -5.117252,15.652736 -2.689204,18.18981 1.184561,4.806238 5.526084,22.519409 5.526084,22.519409 1.543499,4.069224 3.971631,-0.709219 3.971631,-0.709219 0,0 -2.859668,-6.412311 -2.672577,-11.744397 0.177305,-9.042553 3.949173,-11.376171 3.949173,-11.376171 l 0.814279,7.411962 c 0,0 3.369532,1.121241 6.504084,0.759349 2.282952,-0.263573 4.44126,-1.313871 5.08237,-4.157056 C 73.70773,64.126737 84.023041,50.272886 73.73305,41.479621 l -8.713578,-9.09448 c -4.762553,1.058345 -7.572663,3.785072 -7.572663,3.785072 z"
                 id="path100"
                 sodipodi:nodetypes="ccccccccsccccc" />
              <path
                 style="fill:#000000;fill-opacity:1;stroke:none;stroke-opacity:1"
                 id="path101"
                 sodipodi:type="arc"
                 sodipodi:cx="50.921986"
                 sodipodi:cy="47.730495"
                 sodipodi:rx="1.6312057"
                 sodipodi:ry="1.9148936"
                 sodipodi:start="0"
                 sodipodi:end="5.3173646"
                 sodipodi:arc-type="slice"
                 d="m 52.553191,47.730495 a 1.6312057,1.9148936 0 0 1 -1.241158,1.859345 1.6312057,1.9148936 0 0 1 -1.83472,-0.970147 1.6312057,1.9148936 0 0 1 0.363737,-2.3233 1.6312057,1.9148936 0 0 1 2.008671,-0.140928 l -0.927735,1.57503 z" />
              <path
                 style="fill:#000000;fill-opacity:1;stroke:none;stroke-opacity:1"
                 d="m 53.227315,39.593077 -0.327408,2.245089 1.052385,-2.186623 z"
                 id="path102" />
              <path
                 style="fill:#000000;fill-opacity:1;stroke:none;stroke-opacity:1"
                 d="m 64.162168,62.243918 -6.085483,-4.034941 c 0,0 5.225578,5.424019 4.894845,5.490165 -0.330733,0.06615 1.190638,-1.455224 1.190638,-1.455224 z"
                 id="path103"
                 sodipodi:nodetypes="ccsc" />
              <path
                 style="fill:#ffffff;fill-opacity:1;stroke:#000000;stroke-opacity:1"
                 d="m 53.274088,61.844715 -4.069223,1.870907 -5.519178,1.777362 c 0,0 5.791218,-3.685306 7.577175,-9.307764 z"
                 id="path104"
                 sodipodi:nodetypes="ccccc" />
              <path
                 style="fill:none;fill-opacity:1;stroke:#ffe9a6;stroke-opacity:1"
                 d="m 52.685417,40.574615 c 0,0 -6.026459,-0.19431 -9.102274,1.889308 0,0 -4.236939,6.558552 -3.311861,14.692298 l 1.169317,2.572497 1.028999,-0.280636 -1.169317,1.309636 c 0,0 5.089223,23.407663 6.114495,22.250098"
                 id="path105"
                 sodipodi:nodetypes="ccccccc" />
            </g>
          </g>
          <g
             id="g115"
             transform="matrix(1.0769832,0,0,1.0272506,199.92336,44.31664)"
             style="fill:#ffe9a6;stroke:none">
            <path
               style="fill:#ffe9a6;fill-opacity:1;stroke:none;stroke-opacity:1"
               d="m 89.959328,57.150632 c 11.377212,5.291725 0.558521,36.261614 -0.499829,36.790786 -1.05834,0.529173 -5.556309,9.789692 -5.556309,9.789692 L 44.979664,103.9824 C 37.703542,96.706278 38.629594,71.43829 38.629594,71.43829 43.921319,60.325667 89.959328,57.150632 89.959328,57.150632 Z"
               id="path106"
               sodipodi:nodetypes="cscccc" />
            <path
               style="fill:#ffe9a6;fill-opacity:1;stroke:none;stroke-opacity:1"
               d="M 51.594321,103.9824 50.403683,87.313466 47.228647,82.550913 52.123493,85.990535 55.166235,82.8155 Z"
               id="path107" />
            <path
               style="fill:#ffe9a6;fill-opacity:1;stroke:none;stroke-opacity:1"
               d="m 66.014272,104.37928 c 0,0 2.674807,-5.188372 -0.412191,-19.687904 4.115997,7.015903 18.404057,7.649229 18.404057,7.649229 L 70.313799,91.546846 67.959921,103.22074 Z"
               id="path108"
               sodipodi:nodetypes="cccccc" />
            <g
               id="g114"
               transform="matrix(1.9674861,0,0,1.9674861,-56.561701,-56.371077)"
               style="fill:#ffe9a6;stroke:none">
              <path
                 style="fill:#ffe9a6;fill-opacity:1;stroke:none;stroke-opacity:1"
                 d="m 53.475177,39.432624 c 0,0 -10.704445,0.82383 -10.638298,2.411348 -3.638061,4.63026 -5.117252,15.652736 -2.689204,18.18981 1.184561,4.806238 5.526084,22.519409 5.526084,22.519409 1.543499,4.069224 3.971631,-0.709219 3.971631,-0.709219 0,0 -2.859668,-6.412311 -2.672577,-11.744397 0.177305,-9.042553 3.949173,-11.376171 3.949173,-11.376171 l 0.814279,7.411962 c 0,0 3.369532,1.121241 6.504084,0.759349 2.282952,-0.263573 4.44126,-1.313871 5.08237,-4.157056 C 73.70773,64.126737 84.023041,50.272886 73.73305,41.479621 l -8.713578,-9.09448 c -4.762553,1.058345 -7.572663,3.785072 -7.572663,3.785072 z"
                 id="path109"
                 sodipodi:nodetypes="ccccccccsccccc" />
              <path
                 style="fill:#ffe9a6;fill-opacity:1;stroke:none;stroke-opacity:1"
                 id="path110"
                 sodipodi:type="arc"
                 sodipodi:cx="50.921986"
                 sodipodi:cy="47.730495"
                 sodipodi:rx="1.6312057"
                 sodipodi:ry="1.9148936"
                 sodipodi:start="0"
                 sodipodi:end="5.3173646"
                 sodipodi:arc-type="slice"
                 d="m 52.553191,47.730495 a 1.6312057,1.9148936 0 0 1 -1.241158,1.859345 1.6312057,1.9148936 0 0 1 -1.83472,-0.970147 1.6312057,1.9148936 0 0 1 0.363737,-2.3233 1.6312057,1.9148936 0 0 1 2.008671,-0.140928 l -0.927735,1.57503 z" />
              <path
                 style="fill:#ffe9a6;fill-opacity:1;stroke:none;stroke-opacity:1"
                 d="m 53.227315,39.593077 -0.327408,2.245089 1.052385,-2.186623 z"
                 id="path111" />
              <path
                 style="fill:#ffe9a6;fill-opacity:1;stroke:none;stroke-opacity:1"
                 d="m 64.162168,62.243918 -6.085483,-4.034941 c 0,0 5.225578,5.424019 4.894845,5.490165 -0.330733,0.06615 1.190638,-1.455224 1.190638,-1.455224 z"
                 id="path112"
                 sodipodi:nodetypes="ccsc" />
              <path
                 style="fill:#ffe9a6;fill-opacity:1;stroke:none;stroke-opacity:1"
                 d="m 53.274088,61.844715 -4.069223,1.870907 -5.519178,1.777362 c 0,0 5.791218,-3.685306 7.577175,-9.307764 z"
                 id="path113"
                 sodipodi:nodetypes="ccccc" />
              <path
                 style="fill:#ffe9a6;fill-opacity:1;stroke:none;stroke-opacity:1"
                 d="m 52.685417,40.574615 c 0,0 -6.026459,-0.19431 -9.102274,1.889308 0,0 -4.236939,6.558552 -3.311861,14.692298 l 1.169317,2.572497 1.028999,-0.280636 -1.169317,1.309636 c 0,0 5.089223,23.407663 6.114495,22.250098"
                 id="path114"
                 sodipodi:nodetypes="ccccccc" />
            </g>
          </g>
          <g
             id="g124"
             transform="matrix(1.0218649,0,0,0.98437887,203.12408,46.862699)">
            <path
               style="fill:url(#linearGradient153);fill-opacity:1;stroke:#000000;stroke-opacity:1"
               d="m 89.959328,57.150632 c 11.377212,5.291725 0.558521,36.261614 -0.499829,36.790786 -1.05834,0.529173 -5.556309,9.789692 -5.556309,9.789692 L 44.979664,103.9824 C 37.703542,96.706278 38.629594,71.43829 38.629594,71.43829 43.921319,60.325667 89.959328,57.150632 89.959328,57.150632 Z"
               id="path115"
               sodipodi:nodetypes="cscccc" />
            <path
               style="fill:#000000;fill-opacity:1;stroke:none;stroke-opacity:1"
               d="M 51.594321,103.9824 50.403683,87.313466 47.228647,82.550913 52.123493,85.990535 55.166235,82.8155 Z"
               id="path116" />
            <path
               style="fill:#000000;fill-opacity:1;stroke:none;stroke-opacity:1"
               d="m 66.014272,104.37928 c 0,0 2.674807,-5.188372 -0.412191,-19.687904 4.115997,7.015903 18.404057,7.649229 18.404057,7.649229 L 70.313799,91.546846 67.959921,103.22074 Z"
               id="path117"
               sodipodi:nodetypes="cccccc" />
            <g
               id="g123"
               transform="matrix(1.9674861,0,0,1.9674861,-56.561701,-56.371077)">
              <path
                 style="fill:url(#linearGradient154);fill-opacity:1;stroke:#000000;stroke-opacity:1"
                 d="m 53.475177,39.432624 c 0,0 -10.704445,0.82383 -10.638298,2.411348 -3.638061,4.63026 -5.117252,15.652736 -2.689204,18.18981 1.184561,4.806238 5.526084,22.519409 5.526084,22.519409 1.543499,4.069224 3.971631,-0.709219 3.971631,-0.709219 0,0 -2.859668,-6.412311 -2.672577,-11.744397 0.177305,-9.042553 3.949173,-11.376171 3.949173,-11.376171 l 0.814279,7.411962 c 0,0 3.369532,1.121241 6.504084,0.759349 2.282952,-0.263573 4.44126,-1.313871 5.08237,-4.157056 C 73.70773,64.126737 84.023041,50.272886 73.73305,41.479621 l -8.713578,-9.09448 c -4.762553,1.058345 -7.572663,3.785072 -7.572663,3.785072 z"
                 id="path118"
                 sodipodi:nodetypes="ccccccccsccccc" />
              <path
                 style="fill:#000000;fill-opacity:1;stroke:none;stroke-opacity:1"
                 id="path119"
                 sodipodi:type="arc"
                 sodipodi:cx="50.921986"
                 sodipodi:cy="47.730495"
                 sodipodi:rx="1.6312057"
                 sodipodi:ry="1.9148936"
                 sodipodi:start="0"
                 sodipodi:end="5.3173646"
                 sodipodi:arc-type="slice"
                 d="m 52.553191,47.730495 a 1.6312057,1.9148936 0 0 1 -1.241158,1.859345 1.6312057,1.9148936 0 0 1 -1.83472,-0.970147 1.6312057,1.9148936 0 0 1 0.363737,-2.3233 1.6312057,1.9148936 0 0 1 2.008671,-0.140928 l -0.927735,1.57503 z" />
              <path
                 style="fill:#000000;fill-opacity:1;stroke:none;stroke-opacity:1"
                 d="m 53.227315,39.593077 -0.327408,2.245089 1.052385,-2.186623 z"
                 id="path120" />
              <path
                 style="fill:#000000;fill-opacity:1;stroke:none;stroke-opacity:1"
                 d="m 64.162168,62.243918 -6.085483,-4.034941 c 0,0 5.225578,5.424019 4.894845,5.490165 -0.330733,0.06615 1.190638,-1.455224 1.190638,-1.455224 z"
                 id="path121"
                 sodipodi:nodetypes="ccsc" />
              <path
                 style="fill:#ffffff;fill-opacity:1;stroke:#000000;stroke-opacity:1"
                 d="m 53.274088,61.844715 -4.069223,1.870907 -5.519178,1.777362 c 0,0 5.791218,-3.685306 7.577175,-9.307764 z"
                 id="path122"
                 sodipodi:nodetypes="ccccc" />
              <path
                 style="fill:none;fill-opacity:1;stroke:#ffe9a6;stroke-opacity:1"
                 d="m 52.685417,40.574615 c 0,0 -6.026459,-0.19431 -9.102274,1.889308 0,0 -4.236939,6.558552 -3.311861,14.692298 l 1.169317,2.572497 1.028999,-0.280636 -1.169317,1.309636 c 0,0 5.089223,23.407663 6.114495,22.250098"
                 id="path123"
                 sodipodi:nodetypes="ccccccc" />
            </g>
          </g>
          <g
             id="g133"
             transform="matrix(1.0769832,0,0,1.0272506,199.92336,44.31664)"
             style="fill:#ffe9a6;stroke:none">
            <path
               style="fill:#ffe9a6;fill-opacity:1;stroke:none;stroke-opacity:1"
               d="m 89.959328,57.150632 c 11.377212,5.291725 0.558521,36.261614 -0.499829,36.790786 -1.05834,0.529173 -5.556309,9.789692 -5.556309,9.789692 L 44.979664,103.9824 C 37.703542,96.706278 38.629594,71.43829 38.629594,71.43829 43.921319,60.325667 89.959328,57.150632 89.959328,57.150632 Z"
               id="path124"
               sodipodi:nodetypes="cscccc" />
            <path
               style="fill:#ffe9a6;fill-opacity:1;stroke:none;stroke-opacity:1"
               d="M 51.594321,103.9824 50.403683,87.313466 47.228647,82.550913 52.123493,85.990535 55.166235,82.8155 Z"
               id="path125" />
            <path
               style="fill:#ffe9a6;fill-opacity:1;stroke:none;stroke-opacity:1"
               d="m 66.014272,104.37928 c 0,0 2.674807,-5.188372 -0.412191,-19.687904 4.115997,7.015903 18.404057,7.649229 18.404057,7.649229 L 70.313799,91.546846 67.959921,103.22074 Z"
               id="path126"
               sodipodi:nodetypes="cccccc" />
            <g
               id="g132"
               transform="matrix(1.9674861,0,0,1.9674861,-56.561701,-56.371077)"
               style="fill:#ffe9a6;stroke:none">
              <path
                 style="fill:#ffe9a6;fill-opacity:1;stroke:none;stroke-opacity:1"
                 d="m 53.475177,39.432624 c 0,0 -10.704445,0.82383 -10.638298,2.411348 -3.638061,4.63026 -5.117252,15.652736 -2.689204,18.18981 1.184561,4.806238 5.526084,22.519409 5.526084,22.519409 1.543499,4.069224 3.971631,-0.709219 3.971631,-0.709219 0,0 -2.859668,-6.412311 -2.672577,-11.744397 0.177305,-9.042553 3.949173,-11.376171 3.949173,-11.376171 l 0.814279,7.411962 c 0,0 3.369532,1.121241 6.504084,0.759349 2.282952,-0.263573 4.44126,-1.313871 5.08237,-4.157056 C 73.70773,64.126737 84.023041,50.272886 73.73305,41.479621 l -8.713578,-9.09448 c -4.762553,1.058345 -7.572663,3.785072 -7.572663,3.785072 z"
                 id="path127"
                 sodipodi:nodetypes="ccccccccsccccc" />
              <path
                 style="fill:#ffe9a6;fill-opacity:1;stroke:none;stroke-opacity:1"
                 id="path128"
                 sodipodi:type="arc"
                 sodipodi:cx="50.921986"
                 sodipodi:cy="47.730495"
                 sodipodi:rx="1.6312057"
                 sodipodi:ry="1.9148936"
                 sodipodi:start="0"
                 sodipodi:end="5.3173646"
                 sodipodi:arc-type="slice"
                 d="m 52.553191,47.730495 a 1.6312057,1.9148936 0 0 1 -1.241158,1.859345 1.6312057,1.9148936 0 0 1 -1.83472,-0.970147 1.6312057,1.9148936 0 0 1 0.363737,-2.3233 1.6312057,1.9148936 0 0 1 2.008671,-0.140928 l -0.927735,1.57503 z" />
              <path
                 style="fill:#ffe9a6;fill-opacity:1;stroke:none;stroke-opacity:1"
                 d="m 53.227315,39.593077 -0.327408,2.245089 1.052385,-2.186623 z"
                 id="path129" />
              <path
                 style="fill:#ffe9a6;fill-opacity:1;stroke:none;stroke-opacity:1"
                 d="m 64.162168,62.243918 -6.085483,-4.034941 c 0,0 5.225578,5.424019 4.894845,5.490165 -0.330733,0.06615 1.190638,-1.455224 1.190638,-1.455224 z"
                 id="path130"
                 sodipodi:nodetypes="ccsc" />
              <path
                 style="fill:#ffe9a6;fill-opacity:1;stroke:none;stroke-opacity:1"
                 d="m 53.274088,61.844715 -4.069223,1.870907 -5.519178,1.777362 c 0,0 5.791218,-3.685306 7.577175,-9.307764 z"
                 id="path131"
                 sodipodi:nodetypes="ccccc" />
              <path
                 style="fill:#ffe9a6;fill-opacity:1;stroke:none;stroke-opacity:1"
                 d="m 52.685417,40.574615 c 0,0 -6.026459,-0.19431 -9.102274,1.889308 0,0 -4.236939,6.558552 -3.311861,14.692298 l 1.169317,2.572497 1.028999,-0.280636 -1.169317,1.309636 c 0,0 5.089223,23.407663 6.114495,22.250098"
                 id="path132"
                 sodipodi:nodetypes="ccccccc" />
            </g>
          </g>
          <g
             id="g142"
             transform="matrix(1.0218649,0,0,0.98437887,203.12408,46.862699)">
            <path
               style="fill:url(#linearGradient23);fill-opacity:1;stroke:#000000;stroke-opacity:1"
               d="m 89.959328,57.150632 c 11.377212,5.291725 0.558521,36.261614 -0.499829,36.790786 -1.05834,0.529173 -5.556309,9.789692 -5.556309,9.789692 L 44.979664,103.9824 C 37.703542,96.706278 38.629594,71.43829 38.629594,71.43829 43.921319,60.325667 89.959328,57.150632 89.959328,57.150632 Z"
               id="path133"
               sodipodi:nodetypes="cscccc" />
            <path
               style="fill:#000000;fill-opacity:1;stroke:none;stroke-opacity:1"
               d="M 51.594321,103.9824 50.403683,87.313466 47.228647,82.550913 52.123493,85.990535 55.166235,82.8155 Z"
               id="path134" />
            <path
               style="fill:#000000;fill-opacity:1;stroke:none;stroke-opacity:1"
               d="m 66.014272,104.37928 c 0,0 2.674807,-5.188372 -0.412191,-19.687904 4.115997,7.015903 18.404057,7.649229 18.404057,7.649229 L 70.313799,91.546846 67.959921,103.22074 Z"
               id="path135"
               sodipodi:nodetypes="cccccc" />
            <g
               id="g141"
               transform="matrix(1.9674861,0,0,1.9674861,-56.561701,-56.371077)">
              <path
                 style="fill:url(#linearGradient20);fill-opacity:1;stroke:#000000;stroke-opacity:1"
                 d="m 53.475177,39.432624 c 0,0 -10.704445,0.82383 -10.638298,2.411348 -3.638061,4.63026 -5.117252,15.652736 -2.689204,18.18981 1.184561,4.806238 5.526084,22.519409 5.526084,22.519409 1.543499,4.069224 3.971631,-0.709219 3.971631,-0.709219 0,0 -2.859668,-6.412311 -2.672577,-11.744397 0.177305,-9.042553 3.949173,-11.376171 3.949173,-11.376171 l 0.814279,7.411962 c 0,0 3.369532,1.121241 6.504084,0.759349 2.282952,-0.263573 4.44126,-1.313871 5.08237,-4.157056 C 73.70773,64.126737 84.023041,50.272886 73.73305,41.479621 l -8.713578,-9.09448 c -4.762553,1.058345 -7.572663,3.785072 -7.572663,3.785072 z"
                 id="path136"
                 sodipodi:nodetypes="ccccccccsccccc" />
              <path
                 style="fill:#000000;fill-opacity:1;stroke:none;stroke-opacity:1"
                 id="path137"
                 sodipodi:type="arc"
                 sodipodi:cx="50.921986"
                 sodipodi:cy="47.730495"
                 sodipodi:rx="1.6312057"
                 sodipodi:ry="1.9148936"
                 sodipodi:start="0"
                 sodipodi:end="5.3173646"
                 sodipodi:arc-type="slice"
                 d="m 52.553191,47.730495 a 1.6312057,1.9148936 0 0 1 -1.241158,1.859345 1.6312057,1.9148936 0 0 1 -1.83472,-0.970147 1.6312057,1.9148936 0 0 1 0.363737,-2.3233 1.6312057,1.9148936 0 0 1 2.008671,-0.140928 l -0.927735,1.57503 z" />
              <path
                 style="fill:#000000;fill-opacity:1;stroke:none;stroke-opacity:1"
                 d="m 53.227315,39.593077 -0.327408,2.245089 1.052385,-2.186623 z"
                 id="path138" />
              <path
                 style="fill:#000000;fill-opacity:1;stroke:none;stroke-opacity:1"
                 d="m 64.162168,62.243918 -6.085483,-4.034941 c 0,0 5.225578,5.424019 4.894845,5.490165 -0.330733,0.06615 1.190638,-1.455224 1.190638,-1.455224 z"
                 id="path139"
                 sodipodi:nodetypes="ccsc" />
              <path
                 style="fill:#ffffff;fill-opacity:1;stroke:#000000;stroke-opacity:1"
                 d="m 53.274088,61.844715 -4.069223,1.870907 -5.519178,1.777362 c 0,0 5.791218,-3.685306 7.577175,-9.307764 z"
                 id="path140"
                 sodipodi:nodetypes="ccccc" />
              <path
                 style="fill:none;fill-opacity:1;stroke:#ffe9a6;stroke-opacity:1"
                 d="m 52.685417,40.574615 c 0,0 -6.026459,-0.19431 -9.102274,1.889308 0,0 -4.236939,6.558552 -3.311861,14.692298 l 1.169317,2.572497 1.028999,-0.280636 -1.169317,1.309636 c 0,0 5.089223,23.407663 6.114495,22.250098"
                 id="path141"
                 sodipodi:nodetypes="ccccccc" />
            </g>
          </g>
        </g>
      </g>
    </g>
  </g>
</svg>
